<?xml version="1.0" encoding="utf-8"?><!DOCTYPE svg PUBLIC "-//W3C//DTD SVG 1.1//EN" "http://www.w3.org/Graphics/SVG/1.1/DTD/svg11.dtd"><svg version="1.1" xmlns="http://www.w3.org/2000/svg" xmlns:xlink="http://www.w3.org/1999/xlink" x="0px" y="0px" viewBox="0 9.513 100 80" enable-background="new 0 9.513 100 80.976" xml:space="preserve"><path d="M23.948,36.979h12.999v-3.166H23.948V36.979z M36.947,40.148H13.836v3.167h23.111V40.148z M36.947,46.48H13.836v3.168
	h23.111V46.48z M36.947,52.814H13.836v3.164h23.111V52.814z M36.947,59.15H13.836v3.167h23.111V59.15z"/><g><path d="M97.389,9.513H67.1c-9.907,0-14.75,2.332-17.104,4.75c-2.35-2.418-7.194-4.75-17.101-4.75H2.605
		C1.163,9.513,0,10.697,0,12.146v71.695c0,1.447,1.162,2.627,2.605,2.627h0.287h16.09h13.913c6.393,0,12.778,2.734,12.841,3.069
		h0.038c1.299,0.971,1.307,0.951,2.605,0.951h3.466c1.321,0,1.387,0.021,2.565-1.215c0.21-0.361,6.815-2.806,12.688-2.806h13.91
		h16.096h0.283c1.446,0,2.611-1.18,2.611-2.627V12.145C100,10.697,98.835,9.513,97.389,9.513z M46.071,19.039v65.646
		c0,0-5.558-3.068-13.056-3.068c-1.837,0-27.741,0-27.741,0V14.37c0,0,25.903,0,27.741,0C47.529,14.37,46.071,19.039,46.071,19.039z
		 M78.909,55.998c-3.661,2.902-4.688,4.712-5.863,5.885c-1.172-1.173-2.154-3.045-5.862-5.885c-3.579-2.726-8.21-6.544-8.21-11.724
		c0-7.61,9.381-10.537,14.072-3.5c4.688-7.038,14.073-4.111,14.073,3.555C87.119,49.515,82.434,53.211,78.909,55.998z"/><path d="M23.948,36.979h12.999v-3.166H23.948V36.979z M36.947,40.148H13.836v3.167h23.111V40.148z M36.947,46.48H13.836v3.168
		h23.111V46.48z M36.947,52.814H13.836v3.164h23.111V52.814z M36.947,59.15H13.836v3.167h23.111V59.15z"/></g></svg>
